<svg id="图层_2" data-name="图层 2" xmlns="http://www.w3.org/2000/svg" viewBox="0 0 103.9 119.9"><defs><style>.cls-1{fill:#fff;}.cls-2{fill:#9ab4ce;}.cls-3{fill:#eec125;}.cls-4{fill:#f9b700;}.cls-5{fill:#fabf00;}.cls-6{fill:#ffde00;}.cls-7{fill:#f9cd9e;}</style></defs><title>apoptosis</title><polygon class="cls-1" points="78 89.9 103.9 74.9 103.9 104.9 78 119.9 78 89.9"/><polygon class="cls-1" points="78 0 78 30 103.9 45 103.9 15 78 0"/><polygon class="cls-1" points="26 0 26 30 0 45 0 15 26 0"/><polygon class="cls-1" points="26 119.9 26 89.9 0 74.9 0 104.9 26 119.9"/><polygon class="cls-2" points="78 0 52 15 78 30 78 0"/><polygon class="cls-2" points="103.9 45 78 59.9 78 30 103.9 45"/><polygon class="cls-2" points="78 89.9 103.9 74.9 78 59.9 78 89.9"/><polygon class="cls-2" points="26 119.9 52 104.9 26 89.9 26 119.9"/><polygon class="cls-2" points="26 60 0 74.9 26 89.9 26 60"/><polygon class="cls-2" points="26 30 0 45 26 60 26 30"/><polygon class="cls-3" points="52 15 26 0 26 30 52 15"/><polygon class="cls-4" points="52 45 26 30 52 15 52 45"/><polygon class="cls-5" points="78 30 52 15 52 45 78 30"/><polygon class="cls-6" points="78 59.9 78 30 52 45 78 59.9"/><polygon class="cls-6" points="52 74.9 78 59.9 52 45 52 74.9"/><polygon class="cls-7" points="26 89.9 52 74.9 52 104.9 26 89.9"/><polygon class="cls-5" points="78 89.9 52 74.9 52 104.9 78 89.9"/><polygon class="cls-3" points="78 119.9 78 89.9 52 104.9 78 119.9"/><polygon class="cls-1" points="26 30 26 60 52 45 26 30"/><polygon class="cls-1" points="52 74.9 52 45 26 60 52 74.9"/><polygon class="cls-1" points="26 89.9 52 74.9 26 60 26 89.9"/><polygon class="cls-1" points="78 59.9 52 74.9 78 89.9 78 59.9"/><polygon class="cls-4" points="26 60 26 59.9 51.8 44.9 52 45 52 45.2 26 60 26 60"/><polygon class="cls-4" points="26.1 60 26 60 26 60.1 51.9 75 52 74.9 52 74.8 26.1 60"/><polygon class="cls-4" points="52 45 52 45.2 77.8 60 78 59.9 78 59.7 52.1 44.9 52 45"/></svg>