<svg id="图层_1" data-name="图层 1" xmlns="http://www.w3.org/2000/svg" viewBox="0 0 135.7 121.3"><defs><style>.cls-1{fill:#fff;}.cls-2{fill:#e98f15;}.cls-3{fill:#379fd2;}.cls-4{fill:#6d6460;}</style></defs><title>dormant</title><polygon class="cls-1" points="102.4 66.2 87.4 40.6 57.9 40.8 55.1 45.7 57.5 49.8 82.2 49.6 94.8 71 99.7 71 102.4 66.2"/><path class="cls-1" d="M95.4,80.3,83.6,101.2l-29.6.2L39,75.9l11.9-21L45.7,46l2.8-4.9h-.1L28.6,76l17,28.9-5.7,9.9a4.5,4.5,0,1,0,7.8,4.5l5.1-8.8,36-.3,17-29.9Z" transform="translate(-1 -0.3)"/><polygon class="cls-2" points="85.1 54.5 82.2 49.6 77.5 49.7 65.3 71.3 40.4 71.5 38 75.6 40.9 80.5 70.5 80.2 85.1 54.5"/><path class="cls-2" d="M33.7,66.9,21.6,46.2,36.2,20.5l29.6-.2L78,40.9H88.3l2.9,4.9h0L70.9,11.2l-40,.3L13.5,42.3H5.5a4.5,4.5,0,1,0,0,9h8.7L28.6,75.9Z" transform="translate(-1 -0.3)"/><path class="cls-3" d="M132.1,40.8h-9.3l-15-25.4L112.7,7A4.5,4.5,0,0,0,111.1.9h0a4.5,4.5,0,0,0-6.1,1.6L100,11l-34.7.3L45.6,46l15,25.5h5.6l2.3-4.1L56,46,70.6,20.2l29.6-.2,15,25.5L100.6,71.3l-24,.2-5.1,9,34.3-.3,17.2-30.4h9.1a4.5,4.5,0,0,0,0-9Z" transform="translate(-1 -0.3)"/><polygon class="cls-4" points="75.2 19.9 69.6 20 67.3 24.1 75.2 19.9"/><polygon class="cls-4" points="57.9 40.8 55 45.7 57.5 49.8 57.9 40.8"/><polygon class="cls-4" points="40.4 71.5 38 75.6 40.9 80.5 40.4 71.5"/><polygon class="cls-4" points="59.6 71.3 65.3 71.3 67.6 67.1 59.6 71.3"/><polygon class="cls-4" points="102.4 66.2 94.8 71 99.6 71 102.4 66.2"/><polygon class="cls-4" points="85.1 54.5 82.2 49.6 77.5 49.7 85.1 54.5"/></svg>