<?xml version="1.0" encoding="utf-8"?>
<!-- Generator: Adobe Illustrator 21.0.0, SVG Export Plug-In . SVG Version: 6.00 Build 0)  -->
<svg version="1.1" id="图层_1" xmlns="http://www.w3.org/2000/svg" xmlns:xlink="http://www.w3.org/1999/xlink" x="0px" y="0px"
	 viewBox="0 0 80 76.2" style="enable-background:new 0 0 80 76.2;" xml:space="preserve">
<style type="text/css">
	.st0{fill:#FFFFFF;}
	.st1{fill:#379FD2;}
	.st2{fill:#1E9A94;}
	.st3{fill:#E98F15;}
</style>
<path class="st0" d="M69.2,33c-2.9,0-5.6,1.2-7.6,3.1l-13.2-2.2l1.8-4.1c3.3-1.3,5.6-4.5,5.6-8.2c0-4.9-4-8.9-8.9-8.9
	s-8.9,4-8.9,8.9c0,1.1,0.2,2.1,0.6,3.1l-1.4,3.2l-2-2c1-2.3,1.6-4.8,1.6-7.5C36.8,8.2,28.6,0,18.4,0S0,8.2,0,18.4
	s8.2,18.4,18.4,18.4c2.8,0,5.5-0.7,7.9-1.8l3.9,3.8l-5.6,5.4c-1.7-0.7-3.6-1.1-5.6-1.1c-8.4,0-15.2,6.8-15.2,15.2S10.6,73.7,19,73.7
	s15.2-6.8,15.2-15.2c0-1.8-0.3-3.4-0.9-5l3.8-3.7l3.9,8.9c-1.1,1.8-1.8,3.9-1.8,6.1c0,6.3,5.1,11.4,11.4,11.4s11.4-5.1,11.4-11.4
	c0-5.6-4.1-10.3-9.5-11.2L49.9,47l9.7,1.6c1.8,3.5,5.4,6,9.6,6c6,0,10.8-4.8,10.8-10.8S75.2,33,69.2,33z"/>
<circle class="st1" cx="18.4" cy="18.4" r="12"/>
<circle class="st1" cx="69.2" cy="43.8" r="6.2"/>
<circle class="st2" cx="19" cy="58.4" r="10.5"/>
<circle class="st3" cx="50.8" cy="64.8" r="8"/>
<circle class="st3" cx="47" cy="21.6" r="5.5"/>
</svg>
