<svg id="图层_1" data-name="图层 1" xmlns="http://www.w3.org/2000/svg" viewBox="0 0 123.4 132.2"><defs><style>.cls-1{fill:#e98f15;}.cls-2{fill:#379fd2;}.cls-3{fill:#1e9a94;}.cls-4{fill:#fff;}</style></defs><title>inherit</title><path class="cls-1" d="M81.1,38.1a72.1,72.1,0,0,1,16.8-3c10.1-.5,17.4,2,20.2,6.7s1.2,12.3-4.3,20.8h-.1a76.2,76.2,0,0,1,5.2,6.6c8.2-11.6,10.9-23.2,6.1-31.5-7.4-12.8-30-14-54.6-4.5A116.1,116.1,0,0,1,81.1,38.1Z" transform="translate(-8.7)"/><path class="cls-1" d="M59.8,100.4a72.1,72.1,0,0,1-16.8,3c-10.1.5-17.4-2-20.2-6.7s-1.2-12.3,4.3-20.8C33.7,65.7,44.7,55.8,58.2,48a113.3,113.3,0,0,1,12.2-6.1,97.9,97.9,0,0,0-10.7-3.8l-5.6,3C24.1,58.5,6.9,85.2,15.9,100.7c7.4,12.8,30,14,54.6,4.5A116.1,116.1,0,0,1,59.8,100.4Z" transform="translate(-8.7)"/><path class="cls-1" d="M108.8,69.2A99.4,99.4,0,0,1,82.7,90.5a113.3,113.3,0,0,1-12.3,6.1,97.8,97.8,0,0,0,10.7,3.8l5.6-3a109.1,109.1,0,0,0,27-21.6A64.4,64.4,0,0,0,108.8,69.2Z" transform="translate(-8.7)"/><path class="cls-2" d="M101.5,51.2a116.3,116.3,0,0,1,1.2,11.6,72.2,72.2,0,0,1,11.1,13.2c5.5,8.5,7,16.1,4.3,20.8s-10.1,7.2-20.2,6.7c-12.1-.6-26.2-5.2-39.7-13S33.7,72.8,27.1,62.5c-5.5-8.5-7-16.1-4.3-20.8S32.9,34.6,43,35.1c12.1.6,26.2,5.2,39.7,13A113.3,113.3,0,0,1,94,55.5a97.4,97.4,0,0,0-2-11.2l-5.3-3.2C56.6,23.7,24.8,22.2,15.9,37.7S24.1,80,54.2,97.4s61.8,18.9,70.8,3.4C132.4,88,122.1,67.7,101.5,51.2Z" transform="translate(-8.7)"/><path class="cls-3" d="M45.9,69.2c0-15.6,3.1-30.1,8.6-40.9,4.6-9,10.4-14.1,15.9-14.1s11.2,5.1,15.9,14.1c5.6,10.8,8.6,25.3,8.6,40.9s-3.1,30.1-8.6,40.9c-4.6,9-10.4,14.1-15.9,14.1s-11.2-5.1-15.9-14.1C49,99.3,45.9,84.8,45.9,69.2m-8,0c0,34.8,14.6,63,32.5,63s32.5-28.2,32.5-63-14.6-63-32.5-63-32.5,28.2-32.5,63Z" transform="translate(-8.7)"/><circle class="cls-1" cx="19.2" cy="98.1" r="10.5" transform="matrix(0.87, -0.5, 0.5, 0.87, -55.14, 22.72)"/><circle class="cls-3" cx="70.4" cy="10.5" r="10.5" transform="translate(-4.5 36.6) rotate(-30)"/><circle class="cls-2" cx="121.5" cy="98.1" r="10.5" transform="matrix(0.87, -0.5, 0.5, 0.87, -41.42, 73.91)"/><circle class="cls-4" cx="21.5" cy="92.5" r="3" transform="translate(-52 23.2) rotate(-30)"/><circle class="cls-4" cx="74.6" cy="6.2" r="3" transform="translate(23.2 67.7) rotate(-60)"/><circle class="cls-4" cx="126.3" cy="93.9" r="3" transform="translate(-26.8 156.3) rotate(-60)"/><circle class="cls-2" cx="61.3" cy="66.8" r="14.5"/><ellipse class="cls-4" cx="67.8" cy="60.3" rx="7.5" ry="8"/></svg>