<svg id="图层_1" data-name="图层 1" xmlns="http://www.w3.org/2000/svg" viewBox="0 0 94 115"><defs><style>.cls-1{fill:#fff;}.cls-2{fill:#565857;}.cls-3{fill:#e98f15;}.cls-4{fill:#1e9a94;}.cls-5{fill:#379fd2;}</style></defs><title>reproduce</title><path class="cls-1" d="M68,26V22.4A12,12,0,0,0,62,0H32a12,12,0,0,0-6,22.4V26a47,47,0,1,0,42,0ZM47,105A37,37,0,0,1,35,33V13.8H31.2A2,2,0,0,1,32,10H62a2,2,0,0,1,.8,3.8H59V33a37,37,0,0,1-12,72Z"/><polygon class="cls-2" points="51.8 83.6 23 61.4 52.3 50.1 53.7 53.9 31 62.6 54.2 80.4 51.8 83.6"/><circle class="cls-3" cx="53" cy="52" r="9"/><circle class="cls-4" cx="27" cy="62" r="6"/><circle class="cls-5" cx="53" cy="82" r="13"/></svg>