<svg id="图层_1" data-name="图层 1" xmlns="http://www.w3.org/2000/svg" viewBox="0 0 109 109"><defs><style>.cls-1{fill:#fff;}.cls-2{fill:#e98f15;}.cls-3{fill:#1e9a94;}</style></defs><title>varify</title><path class="cls-1" d="M54.5,9A45.5,45.5,0,1,1,9,54.5,45.6,45.6,0,0,1,54.5,9m0-9A54.5,54.5,0,1,0,109,54.5,54.5,54.5,0,0,0,54.5,0Z"/><path class="cls-2" d="M34.9,102.5a4,4,0,0,1-.5-8c6.3-.7,25.5-10.8,33-20.7,1.4-1.9,3.1-4.7,2.7-7.1s-8.8-5-14.3-6.7C45,56.7,32.7,53,30.6,42.5c-1.5-7.7,5.2-16.3,20.5-26.1A189,189,0,0,1,72.5,4.8a4,4,0,0,1,3.3,7.3A184.3,184.3,0,0,0,55.4,23.2C42,31.8,37.9,38,38.5,41c1.1,5.8,11,8.8,19.7,11.4S76.9,58,78.1,65.4c.7,4.1-.8,8.6-4.2,13.1C65.2,90.1,44,101.4,35.4,102.4Z"/><path class="cls-3" d="M73.9,102.5a4,4,0,0,0,.5-8c-6.3-.7-25.5-10.8-33-20.7-1.4-1.9-3.1-4.7-2.7-7.1s8.8-5,14.3-6.7c10.9-3.3,23.2-7,25.3-17.5,1.5-7.7-5.2-16.3-20.5-26.1A189,189,0,0,0,36.3,4.8,4,4,0,0,0,33,12.1,184.3,184.3,0,0,1,53.4,23.2C66.8,31.8,70.9,38,70.4,41c-1.1,5.8-11,8.8-19.7,11.4S31.9,58,30.7,65.4c-.7,4.1.8,8.6,4.2,13.1,8.7,11.5,29.8,22.8,38.5,23.9Z"/><rect class="cls-3" x="34.6" y="29" width="38.4" height="7.7" rx="3.8" ry="3.8"/><rect class="cls-3" x="36.2" y="39.1" width="37.9" height="7.7" rx="3.6" ry="3.6"/><rect class="cls-2" x="35.8" y="73.3" width="37.2" height="7.56" rx="3.7" ry="3.7"/><rect class="cls-2" x="34.1" y="63" width="39" height="7.39" rx="3.5" ry="3.5"/></svg>