<svg id="图层_1" data-name="图层 1" xmlns="http://www.w3.org/2000/svg" viewBox="0 0 62 64"><defs><style>.cls-1{fill:#386ea2;}.cls-2{fill:#88c2d3;}</style></defs><title>adaptability</title><path class="cls-1" d="M51,3H9V0H0V5.2C0,16.4,5,25.3,14,30.7h0s5.7-4.3,16-4.5C18.8,26.2,10.5,18.6,9.2,8H50.7Z"/><path class="cls-2" d="M53,0V5.2A21.9,21.9,0,0,1,51.1,14H14.1l3.8,5H48.1A22,22,0,0,1,31,27.2c-10.2.3-16,4.5-16,4.5A31.1,31.1,0,0,0,0,58.2V64H9V61H51V56H9.1A21.9,21.9,0,0,1,31,36.3a28.7,28.7,0,0,0,16-4.5A31.1,31.1,0,0,0,62,5.2V0H53Z"/><path class="cls-1" d="M48,32.7a24.2,24.2,0,0,1-15.1,4.5A18.8,18.8,0,0,1,49,45H16.8L14,50H51.6A24.5,24.5,0,0,1,53,58.2V64h9V58.2C62,47,57,38.2,48,32.7Z"/></svg>