<?xml version="1.0" encoding="utf-8"?>
<!-- Generator: Adobe Illustrator 21.0.0, SVG Export Plug-In . SVG Version: 6.00 Build 0)  -->
<svg version="1.1" id="图层_1" xmlns="http://www.w3.org/2000/svg" xmlns:xlink="http://www.w3.org/1999/xlink" x="0px" y="0px"
	 viewBox="0 0 61.3 64" style="enable-background:new 0 0 61.3 64;" xml:space="preserve">
<style type="text/css">
	.st0{fill:#88C2D3;enable-background:new    ;}
	.st1{fill:#386EA2;}
</style>
<title>cell</title>
<path class="st0" d="M57.3,18c-2.2-3.8-5.6-6-7.5-4.9s-1.6,2.8-1,5.2l-3,1.8c-7.2-8.4-19.8-9.4-28.2-2.2c-0.8,0.7-1.5,1.4-2.2,2.2
	l-3-1.8c0.6-2.4,0.3-4.5-1-5.2c-1.3-0.7-5.3,1.1-7.5,4.9s-2.4,7.8-0.5,8.9s3.2,0,5-1.7l3.1,1.8l-0.2,0.9l-0.3,1l0,0
	c-2.6,10.7,4,21.4,14.7,24c0.3,0.1,0.6,0.1,0.9,0.2v3.4c-2.4,0.7-4,2-4,3.5s3.6,4,8,4s8-1.8,8-4s-1.6-2.8-4-3.5v-3.4
	C45.4,51,52.5,40.6,50.4,29.8c-0.1-0.3-0.1-0.5-0.2-0.8l0,0l-0.3-1l-0.2-0.9l3.2-1.8c1.8,1.7,3.7,2.5,5,1.7S59.5,21.8,57.3,18z
	 M21.1,36c-1.4-5.3,1.7-10.7,6.9-12.2c5.3-1.4,10.7,1.7,12.2,6.9c0.5,1.7,0.5,3.5,0,5.2c-1.6,5.3-7.2,8.2-12.5,6.6
	C24.5,41.6,22.1,39.1,21.1,36z"/>
<path class="st1" d="M30.6,0c-5,0-9,2.2-9,5s1.6,3.3,4,4.2V12h10V9.2c2.4-0.9,4-2.4,4-4.2S35.6,0,30.6,0z"/>
<path class="st1" d="M9.8,39.7l-2.5,1.4c-2-1.6-4.1-2.3-5.6-1.4s-2.3,6,0.2,10.3s6.4,6.7,8.8,5.3s2-3,1.6-5.5l2.5-1.4L9.8,39.7z"/>
<path class="st1" d="M59.5,39.7c-1.5-0.9-3.6-0.3-5.6,1.4l-2.5-1.4l-5,8.7l2.5,1.4c-0.4,2.5,0.1,4.7,1.6,5.5s6.3-1,8.8-5.3
	C61.8,45.7,61.9,41.1,59.5,39.7z"/>
<circle class="st1" cx="30.6" cy="33.3" r="8"/>
</svg>
