<svg xmlns="http://www.w3.org/2000/svg" viewBox="0 0 140 140"><defs><style>.cls-1{fill:#3c73ab;}.cls-2{fill:#0b5298;}.cls-3{fill:#8cc9dc;}</style></defs><circle class="cls-1" cx="70" cy="70" r="23"/><path class="cls-2" d="M70,47.5A22.5,22.5,0,1,1,47.5,70,22.52,22.52,0,0,1,70,47.5m0-1A23.5,23.5,0,1,0,93.5,70,23.5,23.5,0,0,0,70,46.5Z" transform="translate(0 0)"/><path class="cls-3" d="M31.94,111.16A17,17,0,0,1,47.19,85.37a27.45,27.45,0,0,1-4.68-15A17,17,0,0,1,14.89,58.64,60.91,60.91,0,0,1,2.41,51.8a70,70,0,0,0,23.51,72.56A60.86,60.86,0,0,1,31.94,111.16Z" transform="translate(0 0)"/><path class="cls-3" d="M76.57,13.74a17,17,0,0,1,2.22,30.2A27.57,27.57,0,0,1,92,53.44a17,17,0,0,1,29.24-6.7,61,61,0,0,1,14.17-1.8A70,70,0,0,0,73.87.11,60.87,60.87,0,0,1,76.57,13.74Z" transform="translate(0 0)"/><path class="cls-3" d="M19,46.07a17,17,0,0,1,29.37,7A27.4,27.4,0,0,1,61.2,44a17,17,0,0,1,2.16-30.19A60.82,60.82,0,0,1,65.91.13,70,70,0,0,0,4.84,44.42,61.48,61.48,0,0,1,19,46.07Z" transform="translate(0 0)"/><path class="cls-3" d="M97.26,118.57a17,17,0,0,1-20-22,27.53,27.53,0,0,1-14.88-.09,17,17,0,0,1-19.77,22.48,61.72,61.72,0,0,1-10.57,9.91,69.94,69.94,0,0,0,76.19-.21A61.61,61.61,0,0,1,97.26,118.57Z" transform="translate(0 0)"/><path class="cls-3" d="M125.29,59.3A17,17,0,0,1,97.48,70.93,27.38,27.38,0,0,1,93,85a17,17,0,0,1,14.91,25.75,61,61,0,0,1,6.28,13.48,70.09,70.09,0,0,0,23.53-72A61.77,61.77,0,0,1,125.29,59.3Z" transform="translate(0 0)"/><path class="cls-1" d="M69.84,40.71a12,12,0,0,1-4.52-23l.28-.13,0-.3A44,44,0,0,1,69.88,1.11a44.08,44.08,0,0,1,4.45,16.12l0,.3.28.12a12,12,0,0,1-4.51,23.06Z" transform="translate(0 0)"/><path class="cls-2" d="M69.89,2.28a43.89,43.89,0,0,1,4,15l0,.6.56.24a11.5,11.5,0,0,1-4.33,22.1h-.27a11.5,11.5,0,0,1-4.34-22.09l.57-.23,0-.62a43.49,43.49,0,0,1,3.77-15m0-2.28a44.77,44.77,0,0,0-4.75,17.2,12.51,12.51,0,0,0,4.88,24h.13a12.49,12.49,0,0,0,4.7-24A44.74,44.74,0,0,0,69.87,0Z" transform="translate(0 0)"/><path class="cls-1" d="M31.17,69a12.11,12.11,0,0,1-3.72-.59A12,12,0,0,1,19.21,58l0-.31-.29-.11a44.14,44.14,0,0,1-14-9,44.24,44.24,0,0,1,6.4-.46,44.87,44.87,0,0,1,10.3,1.2l.29.08.2-.23a12,12,0,0,1,9.09-4.18,11.72,11.72,0,0,1,3.71.6,12,12,0,0,1,7.74,15l-.11.34A12,12,0,0,1,31.17,69Z" transform="translate(0 0)"/><path class="cls-2" d="M31.16,45.44a11.73,11.73,0,0,1,3.56.57,11.53,11.53,0,0,1,7.41,14.37l-.08.26a11.46,11.46,0,0,1-10.88,7.81,11.67,11.67,0,0,1-3.56-.56,11.51,11.51,0,0,1-7.91-10l-.05-.61-.57-.23A43.64,43.64,0,0,1,6,48.89a42.56,42.56,0,0,1,5.29-.32,44.32,44.32,0,0,1,10.18,1.19l.59.14.4-.46a11.49,11.49,0,0,1,8.71-4m0-1a12.54,12.54,0,0,0-9.47,4.35,44.7,44.7,0,0,0-10.41-1.22,44.22,44.22,0,0,0-7.47.63A44.84,44.84,0,0,0,18.71,58,12.5,12.5,0,0,0,27.3,68.84a12.71,12.71,0,0,0,3.87.61,12.51,12.51,0,0,0,11.88-8.64l0-.12h0A12.52,12.52,0,0,0,31.16,44.44Z" transform="translate(0 0)"/><path class="cls-1" d="M29.93,125.31a44,44,0,0,1,5.87-15.65l.16-.26-.16-.26A12,12,0,0,1,53,93.13l.24.18a12,12,0,0,1-7.2,21.6h0a11.65,11.65,0,0,1-2.7-.31l-.3-.07-.19.24A44.11,44.11,0,0,1,29.93,125.31Z" transform="translate(0 0)"/><path class="cls-2" d="M46.06,91.41a11.45,11.45,0,0,1,6.66,2.13l.21.15a11.5,11.5,0,0,1-6.88,20.72,11.89,11.89,0,0,1-2.59-.29l-.59-.14-.4.47a43.56,43.56,0,0,1-11.86,9.91,43.75,43.75,0,0,1,5.61-14.44l.32-.52-.31-.52a11.5,11.5,0,0,1,9.83-17.47m0-1a12.51,12.51,0,0,0-10.69,19,44.71,44.71,0,0,0-6.09,16.82,44.78,44.78,0,0,0,14-11.13,12.75,12.75,0,0,0,2.81.32A12.5,12.5,0,0,0,53.41,92.8l-.11-.07h0a12.47,12.47,0,0,0-7.24-2.31Z" transform="translate(0 0)"/><path class="cls-1" d="M110.09,124.85A44.18,44.18,0,0,1,97,114.43l-.2-.23-.3.07A12,12,0,0,1,86.6,93l.22-.16a12,12,0,0,1,17.24,16l-.16.26.16.26A43.88,43.88,0,0,1,110.09,124.85Z" transform="translate(0 0)"/><path class="cls-2" d="M93.76,91.09a11.51,11.51,0,0,1,9.87,17.43l-.32.52.33.52a43.57,43.57,0,0,1,5.76,14.35,43.81,43.81,0,0,1-12-9.8l-.4-.46-.59.13a11.06,11.06,0,0,1-2.63.31,11.5,11.5,0,0,1-6.86-20.73l.21-.16a11.41,11.41,0,0,1,6.63-2.11m0-1a12.4,12.4,0,0,0-7.34,2.39l-.09.08h0a12.5,12.5,0,0,0,10.32,22.2,44.7,44.7,0,0,0,14.11,11A44.61,44.61,0,0,0,104.48,109,12.5,12.5,0,0,0,93.76,90.09Z" transform="translate(0 0)"/><path class="cls-1" d="M109,69.68A12,12,0,0,1,97.65,61.5l-.1-.28a12,12,0,0,1,20.53-11.41l.2.23.3-.08A44.57,44.57,0,0,1,135.23,49a44,44,0,0,1-13.95,9.22l-.28.11,0,.31a12,12,0,0,1-12,11Z" transform="translate(0 0)"/><path class="cls-2" d="M109,46.17a11.52,11.52,0,0,1,8.68,4l.4.47.6-.15a44,44,0,0,1,10.64-1.31,42.53,42.53,0,0,1,4.78.26,43.77,43.77,0,0,1-13,8.39l-.56.23,0,.61a11.5,11.5,0,0,1-22.36,2.71L98,61.09a11.51,11.51,0,0,1,11-14.92m0-1A12.52,12.52,0,0,0,97.13,61.54s0,.07,0,.11h0A12.5,12.5,0,0,0,109,70.18a12.36,12.36,0,0,0,3.86-.62,12.49,12.49,0,0,0,8.6-10.85,44.75,44.75,0,0,0,14.81-10,44.9,44.9,0,0,0-17.83.8A12.52,12.52,0,0,0,109,45.17Z" transform="translate(0 0)"/></svg>
