<svg id="图层_1" data-name="图层 1" xmlns="http://www.w3.org/2000/svg" viewBox="0 0 81.3 68.7"><defs><style>.cls-1{fill:#88c2d3;}.cls-2{fill:#386ea3;}</style></defs><title>env</title><rect class="cls-1" x="2.2" y="46.3" width="9" height="17" rx="4" ry="4" transform="translate(-26.5 10.7) rotate(-30)"/><rect class="cls-1" x="15" y="20.1" width="17" height="9" rx="4" ry="4"/><rect class="cls-1" x="49.4" y="39.9" width="17" height="9" rx="4" ry="4"/><rect class="cls-1" x="69.9" y="5.9" width="9" height="17" rx="4" ry="4" transform="translate(3.8 42) rotate(-32.3)"/><rect class="cls-1" x="32.2" y="50.3" width="17" height="9" rx="4" ry="4" transform="translate(-27.1 62.6) rotate(-60)"/><rect class="cls-1" x="32.2" y="10.4" width="17" height="9" rx="4" ry="4" transform="translate(7.5 42.7) rotate(-60)"/><rect class="cls-2" x="36.2" y="26.6" width="9" height="17" rx="4" ry="4" transform="translate(-12.1 25.1) rotate(-30)"/><rect class="cls-2" x="49.4" width="17" height="9" rx="4" ry="4"/><rect class="cls-2" x="15" y="59.7" width="17" height="9" rx="4" ry="4"/><rect class="cls-2" x="65.9" y="30.6" width="17" height="9" rx="4" ry="4" transform="translate(6.8 82) rotate(-60)"/><rect class="cls-2" x="-1.8" y="29.7" width="17" height="9" rx="4" ry="4" transform="translate(-26.3 22.9) rotate(-60)"/></svg>