<?xml version="1.0" encoding="utf-8"?>
<!-- Generator: Adobe Illustrator 21.0.0, SVG Export Plug-In . SVG Version: 6.00 Build 0)  -->
<svg version="1.1" id="图层_1" xmlns="http://www.w3.org/2000/svg" xmlns:xlink="http://www.w3.org/1999/xlink" x="0px" y="0px"
	 viewBox="0 0 56 63" style="enable-background:new 0 0 56 63;" xml:space="preserve">
<style type="text/css">
	.st0{fill:#88C2D3;}
	.st1{fill:#386EA2;}
	.st2{fill:#FFFFFF;}
</style>
<title>reproduction</title>
<path class="st0" d="M56,49.8c0-1.2-0.3-2.4-0.8-3.5L44.8,24.6c-0.5-1.1-0.8-2.3-0.8-3.5V11h-9v12.5c0,1.1,0.2,2.1,0.6,3.1l9.6,22.5
	c0.9,2,0,4.4-2.1,5.3c-0.5,0.2-1.1,0.3-1.6,0.3h-27c-2.2-0.1-3.9-1.9-3.9-4.1c0-0.5,0.1-1.1,0.4-1.6l10.4-22.4
	c0.5-1.1,0.7-2.2,0.7-3.4V9H44c2.2,0,4-1.8,4-4V4c0-2.2-1.8-4-4-4H12C9.8,0,8,1.8,8,4v1c0,2.2,1.8,4,4,4h1v12c0,1.3-0.3,2.6-0.9,3.7
	L0.9,46.4c-0.6,1-0.9,2.2-0.9,3.4v6.6c0,0,0.8,6.6,8.6,6.6h39c7.4,0,8.4-7.4,8.4-7.4C56,52.7,56,50.9,56,49.8z"/>
<circle class="st1" cx="28.6" cy="16.6" r="5.5"/>
<circle class="st0" cx="28.6" cy="29.6" r="5.5"/>
<path class="st1" d="M41.6,48.4L39,40.5c-0.7-2.2-1.8-4-4-4h-6.4h-6.4c-2.2,0-3.3,1.8-4,4l-2.6,7.9c-0.5,1.5-0.1,3.2,1.1,4.2
	c0.7,0.6,1.6,0.9,2.5,0.9h9.4H38c0.9,0,1.8-0.3,2.5-0.9C41.7,51.6,42.1,49.9,41.6,48.4z"/>
<circle class="st2" cx="28.6" cy="44.6" r="5.5"/>
</svg>
