<svg id="图层_1" data-name="图层 1" xmlns="http://www.w3.org/2000/svg" viewBox="0 0 65.9 65.9"><defs><style>.cls-1{fill:#386ea2;}.cls-2{fill:#88c2d3;}</style></defs><title>survivability</title><circle class="cls-1" cx="32.9" cy="32.9" r="10"/><path class="cls-2" d="M31,49.6A60.5,60.5,0,0,1,23.2,43C9.6,29.4,6.8,14.9,10.9,10.9c1.4-1.4,3.7-1.7,5.4-1.7a21,21,0,0,1,4.8.6,89.9,89.9,0,0,1,9.9-6A36.4,36.4,0,0,0,16.2.2C11.5.2,7.4,1.6,4.5,4.5c-9,9-3.4,29.1,12.4,44.9,1.7,1.7,3.4,3.2,5.1,4.6C24.5,52.9,28.2,51.2,31,49.6Z" transform="translate(-0.2 -0.2)"/><path class="cls-2" d="M49.4,16.9a70.8,70.8,0,0,0-5.7-5.1A62.7,62.7,0,0,0,35,16.5a60.5,60.5,0,0,1,8,6.7C56.6,36.8,59.4,51.4,55.4,55.4c-1.4,1.4-3.7,1.7-5.4,1.7a22.2,22.2,0,0,1-6-.9c-2.3,1.6-6,4.1-9.3,6.1A36.8,36.8,0,0,0,50,66.1c4.7,0,8.8-1.4,11.7-4.3C70.7,52.8,65.2,32.7,49.4,16.9Z" transform="translate(-0.2 -0.2)"/><path class="cls-2" d="M55.4,10.9c1.8,1.8,2.2,5.5,1,10.3a66.5,66.5,0,0,1,5.9,10c5-10.8,5.2-21-.6-26.8C58.8,1.6,54.8.2,50,.2v9C51.7,9.2,54,9.5,55.4,10.9Z" transform="translate(-0.2 -0.2)"/><polygon class="cls-2" points="49.8 0 49.8 0 49.8 0 49.8 0"/><path class="cls-2" d="M16.5,31.1a61.2,61.2,0,0,1,6.7-7.9c8.5-8.5,19-14,26.8-14V.2h0c-9.8,0-22.5,6-33.2,16.7a70.9,70.9,0,0,0-5.1,5.7A44.2,44.2,0,0,0,16.5,31.1Z" transform="translate(-0.2 -0.2)"/><path class="cls-2" d="M49.8,35A61.1,61.1,0,0,1,43,43c-8.5,8.5-19,14-26.8,14-1.7,0-4-.3-5.4-1.7s-2.2-5.7-1-10.6C7.2,41.5,5,38.2,3.5,36c-4.5,10.4-4.5,20.2,1,25.8,2.9,2.9,7,4.3,11.7,4.3,9.8,0,22.5-6,33.2-16.7A71,71,0,0,0,54.2,44,36.7,36.7,0,0,0,49.8,35Z" transform="translate(-0.2 -0.2)"/></svg>