<svg xmlns="http://www.w3.org/2000/svg" viewBox="0 0 63 60"><defs><style>.cls-1{fill:#fff;}.cls-1,.cls-2{stroke:#000;stroke-miterlimit:10;stroke-width:10px;}.cls-2{fill:none;}.cls-3{fill:#faea78;}.cls-4{fill:#3ceff4;}.cls-5{fill:#ffd1d4;}</style></defs><title>cell-evolution-logo</title><line class="cls-1" x1="37" y1="17" x2="31" y2="30.6"/><line class="cls-2" x1="54.5" y1="34.5" x2="31" y2="30.6"/><line class="cls-1" x1="40" y1="51" x2="31" y2="30.6"/><line class="cls-2" x1="15" y1="46" x2="31" y2="30.6"/><line class="cls-2" x1="14.5" y1="14.5" x2="31" y2="30.6"/><circle cx="14.5" cy="14.5" r="14.5"/><circle cx="37" cy="17" r="7"/><circle cx="54.5" cy="34.5" r="8.5"/><circle cx="15" cy="46" r="12"/><circle cx="40" cy="51" r="9"/><path class="cls-3" d="M55.5,33.5a3,3,0,1,1-3,3,3,3,0,0,1,3-3m0-2a5,5,0,1,0,5,5,5,5,0,0,0-5-5Z" transform="translate(-1 -2)"/><path class="cls-4" d="M38,16.5A2.5,2.5,0,1,1,35.5,19,2.5,2.5,0,0,1,38,16.5m0-2A4.5,4.5,0,1,0,42.5,19,4.5,4.5,0,0,0,38,14.5Z" transform="translate(-1 -2)"/><path class="cls-4" d="M41,48.5A4.5,4.5,0,1,1,36.5,53,4.5,4.5,0,0,1,41,48.5m0-2A6.5,6.5,0,1,0,47.5,53,6.5,6.5,0,0,0,41,46.5Z" transform="translate(-1 -2)"/><path class="cls-5" d="M16,41.5A6.5,6.5,0,1,1,9.5,48,6.5,6.5,0,0,1,16,41.5m0-2A8.5,8.5,0,1,0,24.5,48,8.5,8.5,0,0,0,16,39.5Z" transform="translate(-1 -2)"/><path class="cls-3" d="M15.5,9A7.5,7.5,0,1,1,8,16.5,7.5,7.5,0,0,1,15.5,9m0-2A9.5,9.5,0,1,0,25,16.5,9.5,9.5,0,0,0,15.5,7Z" transform="translate(-1 -2)"/></svg>
