<?xml version="1.0" encoding="utf-8"?>
<!-- Generator: Adobe Illustrator 21.0.0, SVG Export Plug-In . SVG Version: 6.00 Build 0)  -->
<svg version="1.1" id="图层_1" xmlns="http://www.w3.org/2000/svg" xmlns:xlink="http://www.w3.org/1999/xlink" x="0px" y="0px"
	 viewBox="0 0 676 348" style="enable-background:new 0 0 676 348;" xml:space="preserve">
<style type="text/css">
	.st0{opacity:8.000000e-02;}
	.st1{fill:#28D8EA;}
	.st2{opacity:0.8;fill:#59A2BC;enable-background:new    ;}
</style>
<g class="st0">
	<path class="st1" d="M17,247l74,71h475.5l77.5-39.8V147l25-17.3V83.4L645.3,36H531l-1-0.3L497,24H17v67.2l-1.4,1.7L5,105.2v43.9
		l10.9,15.4l1.1,1.6V247z M610.9,46.8h6c4.7,0,8.5,3.8,8.5,8.5s-3.8,8.5-8.5,8.5h-6c-4.7,0-8.5-3.8-8.5-8.5S606.2,46.8,610.9,46.8z
		 M570.9,46.8h6c4.7,0,8.5,3.8,8.5,8.5s-3.8,8.5-8.5,8.5h-6c-4.7,0-8.5-3.8-8.5-8.5S566.2,46.8,570.9,46.8z M528,47h6
		c4.7,0,8.5,3.8,8.5,8.5S538.7,64,534,64h-6c-4.7,0-8.5-3.8-8.5-8.5S523.3,47,528,47z"/>
</g>
<path class="st2" d="M650,30H533l-34-12H390L372.6,0H26L12,18v71L0,103v48l12,17v107l46,49h191l23.9,24h270.6l25.5-24l107-55V82
	L650,30z M60.6,318L18,272.6V253l68,65H60.6z M567.5,318H92l-74-71v-80.9l-1.1-1.6L6,149.1v-43.9l10.6-12.3l1.4-1.7V24h480l33,11.7
	l1,0.3h114.3L670,83.4v46.3L645,147v131.2L567.5,318z M649,276.1V149l21-14.3v130.7L649,276.1z"/>
</svg>
