<?xml version="1.0" encoding="utf-8"?>
<!-- Generator: Adobe Illustrator 21.0.0, SVG Export Plug-In . SVG Version: 6.00 Build 0)  -->
<svg version="1.1" id="图层_1" xmlns="http://www.w3.org/2000/svg" xmlns:xlink="http://www.w3.org/1999/xlink" x="0px" y="0px"
	 viewBox="0 0 63 60" style="enable-background:new 0 0 63 60;" xml:space="preserve">
<style type="text/css">
	.st0{fill:#FAEA78;}
	.st1{fill:#3CEFF4;}
	.st2{fill:#FFD1D4;}
</style>
<title>cell-evolution-logo</title>
<path d="M54.5,26c-2.3,0-4.4,0.9-6,2.4l-10.4-1.7l1.4-3.2c2.6-1,4.4-3.5,4.4-6.5c0-3.9-3.1-7-7-7s-7,3.1-7,7c0,0.9,0.2,1.7,0.5,2.5
	L29.3,22l-1.6-1.6c0.8-1.8,1.3-3.8,1.3-5.9C29,6.5,22.5,0,14.5,0S0,6.5,0,14.5S6.5,29,14.5,29c2.2,0,4.3-0.5,6.2-1.4l3.1,3l-4.4,4.3
	C18,34.3,16.5,34,15,34C8.4,34,3,39.4,3,46s5.4,12,12,12s12-5.4,12-12c0-1.4-0.2-2.7-0.7-4l3-2.9l3.1,7c-0.9,1.4-1.4,3-1.4,4.8
	c0,5,4,9,9,9s9-4,9-9c0-4.4-3.2-8.1-7.4-8.9L39.3,37l7.6,1.3c1.4,2.8,4.3,4.7,7.6,4.7c4.7,0,8.5-3.8,8.5-8.5S59.2,26,54.5,26z"/>
<path class="st0" d="M54.5,31.5c1.7,0,3,1.3,3,3s-1.3,3-3,3s-3-1.3-3-3S52.8,31.5,54.5,31.5 M54.5,29.5c-2.8,0-5,2.2-5,5s2.2,5,5,5
	s5-2.2,5-5S57.3,29.5,54.5,29.5z"/>
<path class="st1" d="M37,14.5c1.4,0,2.5,1.1,2.5,2.5s-1.1,2.5-2.5,2.5s-2.5-1.1-2.5-2.5S35.6,14.5,37,14.5 M37,12.5
	c-2.5,0-4.5,2-4.5,4.5s2,4.5,4.5,4.5s4.5-2,4.5-4.5S39.5,12.5,37,12.5z"/>
<path class="st1" d="M40,46.5c2.5,0,4.5,2,4.5,4.5s-2,4.5-4.5,4.5s-4.5-2-4.5-4.5S37.5,46.5,40,46.5 M40,44.5
	c-3.6,0-6.5,2.9-6.5,6.5s2.9,6.5,6.5,6.5s6.5-2.9,6.5-6.5S43.6,44.5,40,44.5z"/>
<path class="st2" d="M15,39.5c3.6,0,6.5,2.9,6.5,6.5s-2.9,6.5-6.5,6.5S8.5,49.6,8.5,46S11.4,39.5,15,39.5 M15,37.5
	c-4.7,0-8.5,3.8-8.5,8.5s3.8,8.5,8.5,8.5s8.5-3.8,8.5-8.5S19.7,37.5,15,37.5z"/>
<path class="st0" d="M14.5,7c4.1,0,7.5,3.4,7.5,7.5S18.6,22,14.5,22S7,18.6,7,14.5S10.4,7,14.5,7 M14.5,5C9.3,5,5,9.3,5,14.5
	S9.3,24,14.5,24s9.5-4.3,9.5-9.5S19.7,5,14.5,5z"/>
</svg>
