<svg xmlns="http://www.w3.org/2000/svg" viewBox="0 0 63 60"><defs><style>.cls-1{fill:#fff;}.cls-1,.cls-2{stroke:#000;stroke-miterlimit:10;stroke-width:10px;}.cls-2{fill:none;}.cls-3{fill:#faea78;}.cls-4{fill:#3ceff4;}.cls-5{fill:#ffd1d4;}</style></defs><title>logo</title><line class="cls-1" x1="37" y1="17" x2="31" y2="31"/><line class="cls-2" x1="55" y1="35" x2="31" y2="31"/><line class="cls-1" x1="40" y1="51" x2="31" y2="31"/><line class="cls-2" x1="15" y1="46" x2="31" y2="31"/><line class="cls-2" x1="15" y1="15" x2="31" y2="31"/><circle cx="15" cy="14" r="14"/><circle cx="37" cy="17" r="7"/><circle cx="55" cy="35" r="9"/><circle cx="15" cy="46" r="12"/><circle cx="40" cy="51" r="9"/><path class="cls-3" d="M56,34a3,3,0,1,1-3,3,3,3,0,0,1,3-3m0-2a5,5,0,1,0,5,5,5,5,0,0,0-5-5Z" transform="translate(-1 -2)"/><path class="cls-4" d="M38,17a3,3,0,1,1-2,3,3,3,0,0,1,3-2m0-2a5,5,0,1,0,5,5,5,5,0,0,0-4-4Z" transform="translate(-1 -2)"/><path class="cls-4" d="M41,49a5,5,0,1,1-4,5,5,5,0,0,1,5-4m0-2a7,7,0,1,0,7,7,6,6,0,0,0-6-6Z" transform="translate(-1 -2)"/><path class="cls-5" d="M16,42a7,7,0,1,1-6,7,7,7,0,0,1,7-6m0-2a9,9,0,1,0,9,9,9,9,0,0,0-8-8Z" transform="translate(-1 -2)"/><path class="cls-3" d="M16,9a8,8,0,1,1-7,8,8,8,0,0,1,8-7m0-2A10,10,0,1,0,25,17a9,9,0,0,0-9-9Z" transform="translate(-1 -2)"/></svg>
