<svg id="图层_1" data-name="图层 1" xmlns="http://www.w3.org/2000/svg" viewBox="0 0 31 43.2"><defs><style>.cls-1{fill:#29a1de;}</style></defs><title>block2</title><path class="cls-1" d="M5,0V13H31V0ZM29,11H28V3H25v8H24V3H21v8H20V3H17v8H7V2H29Z"/><rect class="cls-1" y="3.7" width="4" height="6"/><path class="cls-1" d="M5,28.1H31v-13H5Zm2-11H29v9H28v-8H25v8H7Z"/><rect class="cls-1" y="18.8" width="4" height="6"/><path class="cls-1" d="M5,43.2H31v-13H5Zm2-11H29v9H28v-8H25v8H24v-8H21v8H20v-8H17v8H16v-8H13v8H12v-8H8.3v8H7Z"/><rect class="cls-1" y="33.9" width="4" height="6"/></svg>