<svg id="图层_1" data-name="图层 1" xmlns="http://www.w3.org/2000/svg" viewBox="0 0 184.8 106.6"><defs><style>.cls-1{fill:#4c96af;}</style></defs><title>block</title><path class="cls-1" d="M132.9,45l26,15,26-15V15l-26-15-26,15Zm50-28.8V43.8l-24,13.8-24-13.8V16.2l24-13.8Z"/><path class="cls-1" d="M52,61.6l-26-15L0,61.6v30l26,15,26-15ZM2,90.4V62.7L26,48.9,50,62.7V90.4L26,104.2Z"/><path class="cls-1" d="M53.2,61.6v30l26,15,26-15v-30l-26-15Zm50,1.2V90.4l-24,13.8-24-13.8V62.7l24-13.8Z"/><path class="cls-1" d="M79.9,45l26,15,26-15V15l-26-15-26,15Zm50-28.8V43.8l-24,13.8-24-13.8V16.2l24-13.8Z"/><path class="cls-1" d="M78.9,45V15L52.9,0l-26,15V45l26,15Zm-50-1.2V16.2l24-13.8,24,13.8V43.8l-24,13.8Z"/></svg>