<svg id="图层_1" data-name="图层 1" xmlns="http://www.w3.org/2000/svg" viewBox="0 0 16 207.3"><defs><style>.cls-1{fill:#71d7cc;}.cls-2{fill:#7bc7c5;}.cls-3{fill:#7bc2c4;}.cls-4{fill:#75c1e5;}.cls-5{fill:#78c1d0;}.cls-6{fill:#34a0e1;}.cls-7{fill:#69cad0;}.cls-8{fill:#319ade;}.cls-9{fill:#29a7da;}.cls-10{fill:#50929e;}.cls-11{fill:#589fb5;}.cls-12{fill:#3ca19d;}.cls-13{fill:#618ba3;}</style></defs><title>block3</title><rect class="cls-1" x="4" y="202.3" width="8" height="5"/><rect class="cls-2" x="4" y="195.3" width="8" height="5"/><rect class="cls-3" x="4" y="189.3" width="8" height="4"/><rect class="cls-3" x="4" y="182.3" width="8" height="5"/><rect class="cls-4" x="4" y="175.3" width="8" height="5"/><rect class="cls-4" x="4" y="168.3" width="8" height="5"/><rect class="cls-4" x="4" y="161.3" width="8" height="5"/><rect class="cls-4" x="4" y="155.5" width="8" height="4"/><rect class="cls-4" x="4" y="149.5" width="8" height="4"/><rect class="cls-4" x="4" y="143.5" width="8" height="4"/><rect class="cls-4" x="4" y="136.5" width="8" height="5"/><rect class="cls-5" x="1.5" y="125.5" width="13" height="9"/><rect class="cls-6" x="0.5" y="115.6" width="15" height="9"/><rect class="cls-7" x="1.5" y="108.6" width="13" height="6"/><rect class="cls-7" y="93.6" width="16" height="14"/><rect class="cls-8" x="2" y="82.6" width="12" height="10"/><rect class="cls-9" x="3" y="72.8" width="10" height="9"/><rect class="cls-10" x="6" y="68.8" width="4" height="3"/><rect class="cls-10" x="6" y="63.8" width="4" height="3"/><rect class="cls-10" x="6" y="59.8" width="4" height="3"/><rect class="cls-11" x="6" y="54.8" width="4" height="4"/><rect class="cls-11" x="6" y="49.8" width="4" height="4"/><rect class="cls-11" x="6" y="44.9" width="4" height="4"/><rect class="cls-11" x="6" y="40" width="4" height="4"/><rect class="cls-12" x="6" y="35" width="4" height="4"/><rect class="cls-12" x="6" y="30" width="4" height="4"/><rect class="cls-12" x="6" y="25" width="4" height="4"/><rect class="cls-12" x="6" y="20" width="4" height="4"/><rect class="cls-12" x="6" y="15" width="4" height="4"/><rect class="cls-12" x="6" y="10" width="4" height="4"/><rect class="cls-13" x="6" y="5" width="4" height="4"/><rect class="cls-13" x="6" width="4" height="4"/></svg>