<svg id="图层_1" data-name="图层 1" xmlns="http://www.w3.org/2000/svg" viewBox="0 0 41 45.3"><defs><style>.cls-1{fill:#090909;}.cls-2{fill:#fff;}</style></defs><title>tag</title><path class="cls-1" d="M35,4.5H23L0,28.5l18,17,23-23v-12Zm4,17.2-21,21L2.8,28.4,23.9,6.5H34.2L39,11.3Z" transform="translate(0 -0.2)"/><path class="cls-1" d="M29.7,10.3a4.5,4.5,0,1,0,4.5,4.5A4.5,4.5,0,0,0,29.7,10.3Zm0,7a2.5,2.5,0,1,1,2.5-2.5A2.5,2.5,0,0,1,29.7,17.3Z" transform="translate(0 -0.2)"/><path class="cls-2" d="M34.2,6.5H23.9L2.8,28.4,18,42.7l21-21V11.3ZM29.7,19.3a4.5,4.5,0,1,1,4.5-4.5A4.5,4.5,0,0,1,29.7,19.3Z" transform="translate(0 -0.2)"/><path class="cls-1" d="M29,4a3,3,0,0,1-.4-2.2,1.1,1.1,0,0,1,.7-.5A1.3,1.3,0,0,0,26.9.8c-.6,1-.5,2.4.2,4.1,1.8,4,2.3,7.4,2,7.9h-.3l-.8-.3a1.5,1.5,0,0,0,0,1.9,1.2,1.2,0,0,0,.9.4l1-.3a1.9,1.9,0,0,0,1-1.1C32,10.8,29.3,4.7,29,4Z" transform="translate(0 -0.2)"/><rect class="cls-1" x="17.6" y="21" width="2" height="14" transform="translate(-14.4 21.2) rotate(-45)"/><rect class="cls-1" x="14.2" y="24.4" width="2" height="14" transform="translate(-17.8 19.8) rotate(-45)"/></svg>